<mxfile host="app.diagrams.net" modified="2020-11-13T05:59:24.406Z" agent="5.0 (Macintosh; Intel Mac OS X 10_14_6) AppleWebKit/537.36 (KHTML, like Gecko) Chrome/86.0.4240.111 Safari/537.36" etag="nDrtxOrndnm21JwQEiH2" version="13.7.5" type="github">
  <diagram name="Page-1" id="b98fa263-6416-c6ec-5b7d-78bf54ef71d0">
    <mxGraphModel dx="3179.5" dy="707" grid="1" gridSize="10" guides="1" tooltips="1" connect="1" arrows="1" fold="1" page="1" pageScale="1.5" pageWidth="1169" pageHeight="826" background="#ffffff" math="0" shadow="0">
      <root>
        <mxCell id="0" style=";html=1;" />
        <mxCell id="1" style=";html=1;" parent="0" />
        <mxCell id="303ed1de8c2c98b4-3" value="bos" style="whiteSpace=wrap;html=1;rounded=1;shadow=1;strokeWidth=1;fontSize=16;align=center;fillColor=#f5f5f5;strokeColor=#666666;" parent="1" vertex="1">
          <mxGeometry x="585" y="245" width="600" height="40" as="geometry" />
        </mxCell>
        <mxCell id="303ed1de8c2c98b4-4" value="bos-web" style="whiteSpace=wrap;html=1;rounded=1;shadow=1;strokeWidth=1;fontSize=16;align=center;fillColor=#f5f5f5;strokeColor=#666666;" parent="1" vertex="1">
          <mxGeometry x="630" y="335" width="510" height="40" as="geometry" />
        </mxCell>
        <mxCell id="303ed1de8c2c98b4-9" value="用户权限" style="whiteSpace=wrap;html=1;rounded=1;shadow=1;strokeWidth=1;fontSize=16;align=center;fillColor=#f5f5f5;strokeColor=#666666;" parent="1" vertex="1">
          <mxGeometry x="1357" y="415" width="275" height="40" as="geometry" />
        </mxCell>
        <mxCell id="303ed1de8c2c98b4-19" value="权限管理" style="whiteSpace=wrap;html=1;rounded=1;shadow=1;strokeWidth=1;fontSize=16;align=center;fillColor=#f5f5f5;strokeColor=#666666;" parent="1" vertex="1">
          <mxGeometry x="1357" y="485" width="125" height="80" as="geometry" />
        </mxCell>
        <mxCell id="303ed1de8c2c98b4-79" style="edgeStyle=orthogonalEdgeStyle;html=1;startSize=6;endFill=0;endSize=6;strokeWidth=1;fontSize=16;rounded=0;endArrow=none;" parent="1" source="303ed1de8c2c98b4-3" target="303ed1de8c2c98b4-4" edge="1">
          <mxGeometry relative="1" as="geometry" />
        </mxCell>
        <mxCell id="303ed1de8c2c98b4-80" style="edgeStyle=orthogonalEdgeStyle;html=1;startSize=6;endFill=0;endSize=6;strokeWidth=1;fontSize=16;rounded=0;endArrow=none;" parent="1" source="303ed1de8c2c98b4-4" edge="1">
          <mxGeometry relative="1" as="geometry">
            <Array as="points">
              <mxPoint x="886" y="390" />
              <mxPoint x="578" y="390" />
            </Array>
            <mxPoint x="578" y="415" as="targetPoint" />
          </mxGeometry>
        </mxCell>
        <mxCell id="303ed1de8c2c98b4-81" style="edgeStyle=elbowEdgeStyle;html=1;startSize=6;endFill=0;endSize=6;strokeWidth=1;fontSize=16;rounded=0;endArrow=none;" parent="1" source="303ed1de8c2c98b4-4" edge="1">
          <mxGeometry relative="1" as="geometry">
            <Array as="points">
              <mxPoint x="885" y="395" />
            </Array>
            <mxPoint x="885" y="415" as="targetPoint" />
          </mxGeometry>
        </mxCell>
        <mxCell id="303ed1de8c2c98b4-82" style="edgeStyle=orthogonalEdgeStyle;html=1;startSize=6;endFill=0;endSize=6;strokeWidth=1;fontSize=16;rounded=0;endArrow=none;exitX=0.5;exitY=1;" parent="1" source="303ed1de8c2c98b4-4" edge="1">
          <mxGeometry relative="1" as="geometry">
            <Array as="points">
              <mxPoint x="885" y="390" />
              <mxPoint x="260" y="390" />
            </Array>
            <mxPoint x="260" y="415" as="targetPoint" />
          </mxGeometry>
        </mxCell>
        <mxCell id="303ed1de8c2c98b4-83" style="edgeStyle=orthogonalEdgeStyle;html=1;startSize=6;endFill=0;endSize=6;strokeWidth=1;fontSize=16;rounded=0;endArrow=none;" parent="1" source="303ed1de8c2c98b4-4" edge="1">
          <mxGeometry relative="1" as="geometry">
            <Array as="points">
              <mxPoint x="885" y="390" />
              <mxPoint x="1195" y="390" />
            </Array>
            <mxPoint x="1195" y="415" as="targetPoint" />
          </mxGeometry>
        </mxCell>
        <mxCell id="303ed1de8c2c98b4-84" style="edgeStyle=orthogonalEdgeStyle;html=1;startSize=6;endFill=0;endSize=6;strokeWidth=1;fontSize=16;rounded=0;endArrow=none;" parent="1" source="303ed1de8c2c98b4-4" target="303ed1de8c2c98b4-9" edge="1">
          <mxGeometry relative="1" as="geometry">
            <Array as="points">
              <mxPoint x="885" y="390" />
              <mxPoint x="1494" y="390" />
            </Array>
          </mxGeometry>
        </mxCell>
        <mxCell id="303ed1de8c2c98b4-109" style="edgeStyle=orthogonalEdgeStyle;html=1;startSize=6;endFill=0;endSize=6;strokeWidth=1;fontSize=16;rounded=0;endArrow=none;entryX=1;entryY=0.5;" parent="1" source="303ed1de8c2c98b4-9" target="303ed1de8c2c98b4-19" edge="1">
          <mxGeometry relative="1" as="geometry">
            <Array as="points">
              <mxPoint x="1495" y="525" />
            </Array>
          </mxGeometry>
        </mxCell>
        <mxCell id="303ed1de8c2c98b4-110" style="edgeStyle=orthogonalEdgeStyle;html=1;startSize=6;endFill=0;endSize=6;strokeWidth=1;fontSize=16;rounded=0;endArrow=none;entryX=1;entryY=0.5;" parent="1" source="303ed1de8c2c98b4-9" edge="1">
          <mxGeometry relative="1" as="geometry">
            <Array as="points">
              <mxPoint x="1495" y="635" />
            </Array>
            <mxPoint x="1482" y="635" as="targetPoint" />
          </mxGeometry>
        </mxCell>
        <mxCell id="303ed1de8c2c98b4-114" style="edgeStyle=orthogonalEdgeStyle;html=1;startSize=6;endFill=0;endSize=6;strokeWidth=1;fontSize=16;rounded=0;endArrow=none;entryX=0;entryY=0.5;" parent="1" source="303ed1de8c2c98b4-9" edge="1">
          <mxGeometry relative="1" as="geometry">
            <Array as="points">
              <mxPoint x="1495" y="525" />
            </Array>
            <mxPoint x="1507" y="525" as="targetPoint" />
          </mxGeometry>
        </mxCell>
        <mxCell id="303ed1de8c2c98b4-115" style="edgeStyle=orthogonalEdgeStyle;html=1;startSize=6;endFill=0;endSize=6;strokeWidth=1;fontSize=16;rounded=0;endArrow=none;entryX=0;entryY=0.5;" parent="1" source="303ed1de8c2c98b4-9" edge="1">
          <mxGeometry relative="1" as="geometry">
            <Array as="points">
              <mxPoint x="1495" y="635" />
            </Array>
            <mxPoint x="1507" y="635" as="targetPoint" />
          </mxGeometry>
        </mxCell>
        <mxCell id="FHTOoToXrkzVN3hK7Ukm-1" style="edgeStyle=orthogonalEdgeStyle;html=1;startSize=6;endFill=0;endSize=6;strokeWidth=1;fontSize=16;rounded=0;endArrow=none;" edge="1" parent="1">
          <mxGeometry relative="1" as="geometry">
            <Array as="points">
              <mxPoint x="885" y="375" />
              <mxPoint x="885" y="390" />
              <mxPoint x="1800" y="390" />
              <mxPoint x="1800" y="415" />
            </Array>
            <mxPoint x="1065" y="375" as="sourcePoint" />
            <mxPoint x="1760" y="415" as="targetPoint" />
          </mxGeometry>
        </mxCell>
        <mxCell id="FHTOoToXrkzVN3hK7Ukm-2" value="操作记录" style="whiteSpace=wrap;html=1;rounded=1;shadow=1;strokeWidth=1;fontSize=16;align=center;fillColor=#f5f5f5;strokeColor=#666666;" vertex="1" parent="1">
          <mxGeometry x="1660" y="415" width="275" height="40" as="geometry" />
        </mxCell>
        <mxCell id="FHTOoToXrkzVN3hK7Ukm-3" value="操作记录" style="whiteSpace=wrap;html=1;rounded=1;shadow=1;strokeWidth=1;fontSize=16;align=center;fillColor=#f5f5f5;strokeColor=#666666;" vertex="1" parent="1">
          <mxGeometry x="1660" y="485" width="125" height="80" as="geometry" />
        </mxCell>
        <mxCell id="FHTOoToXrkzVN3hK7Ukm-13" style="edgeStyle=orthogonalEdgeStyle;html=1;startSize=6;endFill=0;endSize=6;strokeWidth=1;fontSize=16;rounded=0;endArrow=none;entryX=1;entryY=0.5;" edge="1" parent="1" source="FHTOoToXrkzVN3hK7Ukm-2" target="FHTOoToXrkzVN3hK7Ukm-3">
          <mxGeometry relative="1" as="geometry">
            <Array as="points">
              <mxPoint x="1798" y="525" />
            </Array>
          </mxGeometry>
        </mxCell>
        <mxCell id="FHTOoToXrkzVN3hK7Ukm-14" style="edgeStyle=orthogonalEdgeStyle;html=1;startSize=6;endFill=0;endSize=6;strokeWidth=1;fontSize=16;rounded=0;endArrow=none;entryX=1;entryY=0.5;" edge="1" parent="1" source="FHTOoToXrkzVN3hK7Ukm-2">
          <mxGeometry relative="1" as="geometry">
            <Array as="points">
              <mxPoint x="1798" y="635" />
            </Array>
            <mxPoint x="1785" y="635" as="targetPoint" />
          </mxGeometry>
        </mxCell>
        <mxCell id="FHTOoToXrkzVN3hK7Ukm-18" style="edgeStyle=orthogonalEdgeStyle;html=1;startSize=6;endFill=0;endSize=6;strokeWidth=1;fontSize=16;rounded=0;endArrow=none;entryX=0;entryY=0.5;" edge="1" parent="1" source="FHTOoToXrkzVN3hK7Ukm-2">
          <mxGeometry relative="1" as="geometry">
            <Array as="points">
              <mxPoint x="1798" y="525" />
            </Array>
            <mxPoint x="1810" y="525" as="targetPoint" />
          </mxGeometry>
        </mxCell>
        <mxCell id="FHTOoToXrkzVN3hK7Ukm-19" style="edgeStyle=orthogonalEdgeStyle;html=1;startSize=6;endFill=0;endSize=6;strokeWidth=1;fontSize=16;rounded=0;endArrow=none;entryX=0;entryY=0.5;" edge="1" parent="1" source="FHTOoToXrkzVN3hK7Ukm-2">
          <mxGeometry relative="1" as="geometry">
            <Array as="points">
              <mxPoint x="1798" y="635" />
            </Array>
            <mxPoint x="1810" y="635" as="targetPoint" />
          </mxGeometry>
        </mxCell>
        <mxCell id="FHTOoToXrkzVN3hK7Ukm-23" value="&lt;br style=&quot;padding: 0px ; margin: 0px&quot;&gt;集群管理&lt;div style=&quot;padding: 0px ; margin: 0px&quot;&gt;&lt;br style=&quot;padding: 0px ; margin: 0px ; color: rgb(255 , 255 , 255) ; font-size: 14px ; font-weight: 700&quot;&gt;&lt;/div&gt;" style="whiteSpace=wrap;html=1;rounded=1;shadow=1;strokeWidth=1;fontSize=16;align=center;fillColor=#f5f5f5;strokeColor=#666666;" vertex="1" parent="1">
          <mxGeometry x="-190" y="415" width="275" height="40" as="geometry" />
        </mxCell>
        <mxCell id="FHTOoToXrkzVN3hK7Ukm-24" value="配置集群" style="whiteSpace=wrap;html=1;rounded=1;shadow=1;strokeWidth=1;fontSize=16;align=center;fillColor=#f5f5f5;strokeColor=#666666;" vertex="1" parent="1">
          <mxGeometry x="-190" y="485" width="125" height="80" as="geometry" />
        </mxCell>
        <mxCell id="FHTOoToXrkzVN3hK7Ukm-25" value="部署集群" style="whiteSpace=wrap;html=1;rounded=1;shadow=1;strokeWidth=1;fontSize=16;align=center;fillColor=#f5f5f5;strokeColor=#666666;" vertex="1" parent="1">
          <mxGeometry x="-40" y="485" width="125" height="80" as="geometry" />
        </mxCell>
        <mxCell id="FHTOoToXrkzVN3hK7Ukm-26" style="edgeStyle=orthogonalEdgeStyle;html=1;startSize=6;endFill=0;endSize=6;strokeWidth=1;fontSize=16;rounded=0;endArrow=none;entryX=1;entryY=0.5;" edge="1" parent="1" source="FHTOoToXrkzVN3hK7Ukm-23" target="FHTOoToXrkzVN3hK7Ukm-24">
          <mxGeometry relative="1" as="geometry">
            <Array as="points">
              <mxPoint x="-53" y="525" />
            </Array>
          </mxGeometry>
        </mxCell>
        <mxCell id="FHTOoToXrkzVN3hK7Ukm-27" style="edgeStyle=orthogonalEdgeStyle;html=1;startSize=6;endFill=0;endSize=6;strokeWidth=1;fontSize=16;rounded=0;endArrow=none;entryX=1;entryY=0.5;" edge="1" parent="1" source="FHTOoToXrkzVN3hK7Ukm-23">
          <mxGeometry relative="1" as="geometry">
            <Array as="points">
              <mxPoint x="-53" y="635" />
            </Array>
            <mxPoint x="-64" y="635" as="targetPoint" />
          </mxGeometry>
        </mxCell>
        <mxCell id="FHTOoToXrkzVN3hK7Ukm-28" style="edgeStyle=orthogonalEdgeStyle;html=1;startSize=6;endFill=0;endSize=6;strokeWidth=1;fontSize=16;rounded=0;endArrow=none;entryX=0;entryY=0.5;" edge="1" parent="1" source="FHTOoToXrkzVN3hK7Ukm-23" target="FHTOoToXrkzVN3hK7Ukm-25">
          <mxGeometry relative="1" as="geometry">
            <Array as="points">
              <mxPoint x="-53" y="525" />
            </Array>
          </mxGeometry>
        </mxCell>
        <mxCell id="FHTOoToXrkzVN3hK7Ukm-29" style="edgeStyle=orthogonalEdgeStyle;html=1;startSize=6;endFill=0;endSize=6;strokeWidth=1;fontSize=16;rounded=0;endArrow=none;entryX=0;entryY=0.5;" edge="1" parent="1" source="FHTOoToXrkzVN3hK7Ukm-23">
          <mxGeometry relative="1" as="geometry">
            <Array as="points">
              <mxPoint x="-53" y="635" />
            </Array>
            <mxPoint x="-39" y="635" as="targetPoint" />
          </mxGeometry>
        </mxCell>
        <mxCell id="FHTOoToXrkzVN3hK7Ukm-30" style="edgeStyle=orthogonalEdgeStyle;html=1;startSize=6;endFill=0;endSize=6;strokeWidth=1;fontSize=16;rounded=0;endArrow=none;exitX=0.5;exitY=1;" edge="1" parent="1">
          <mxGeometry relative="1" as="geometry">
            <Array as="points">
              <mxPoint x="886" y="375" />
              <mxPoint x="886" y="390" />
              <mxPoint x="-61" y="390" />
            </Array>
            <mxPoint x="564" y="375" as="sourcePoint" />
            <mxPoint x="-61" y="415" as="targetPoint" />
          </mxGeometry>
        </mxCell>
        <mxCell id="FHTOoToXrkzVN3hK7Ukm-31" value="&lt;span style=&quot;font-size: 14px ; font-weight: 700&quot;&gt;应用管理&lt;/span&gt;" style="whiteSpace=wrap;html=1;rounded=1;shadow=1;strokeWidth=1;fontSize=16;align=center;fillColor=#f5f5f5;strokeColor=#666666;" vertex="1" parent="1">
          <mxGeometry x="130" y="415" width="275" height="40" as="geometry" />
        </mxCell>
        <mxCell id="FHTOoToXrkzVN3hK7Ukm-32" value="&lt;p class=&quot;MsoNormal&quot; style=&quot;margin: 0pt 0pt 0.0001pt ; text-align: justify ; font-family: &amp;#34;times new roman&amp;#34; ; font-size: 10.5pt&quot;&gt;&lt;span style=&quot;font-size: 10.5pt&quot;&gt;&lt;font face=&quot;宋体&quot;&gt;索引配置&lt;/font&gt;&lt;/span&gt;&lt;/p&gt;" style="whiteSpace=wrap;html=1;rounded=1;shadow=1;strokeWidth=1;fontSize=16;align=center;fillColor=#f5f5f5;strokeColor=#666666;" vertex="1" parent="1">
          <mxGeometry x="130" y="485" width="125" height="80" as="geometry" />
        </mxCell>
        <mxCell id="FHTOoToXrkzVN3hK7Ukm-33" value="&lt;p class=&quot;MsoNormal&quot; style=&quot;margin: 0pt 0pt 0.0001pt ; text-align: justify ; font-family: &amp;#34;times new roman&amp;#34; ; font-size: 10.5pt&quot;&gt;&lt;span style=&quot;font-size: 10.5pt&quot;&gt;&lt;font face=&quot;宋体&quot;&gt;索引激活&lt;/font&gt;&lt;/span&gt;&lt;/p&gt;" style="whiteSpace=wrap;html=1;rounded=1;shadow=1;strokeWidth=1;fontSize=16;align=center;fillColor=#f5f5f5;strokeColor=#666666;" vertex="1" parent="1">
          <mxGeometry x="280" y="485" width="125" height="80" as="geometry" />
        </mxCell>
        <mxCell id="FHTOoToXrkzVN3hK7Ukm-34" value="&lt;p class=&quot;MsoNormal&quot; style=&quot;margin: 0pt 0pt 0.0001pt ; text-align: justify ; font-family: &amp;#34;times new roman&amp;#34; ; font-size: 10.5pt&quot;&gt;&lt;span style=&quot;font-size: 10.5pt&quot;&gt;&lt;font face=&quot;宋体&quot;&gt;索引重建&lt;/font&gt;&lt;/span&gt;&lt;/p&gt;" style="whiteSpace=wrap;html=1;rounded=1;shadow=1;strokeWidth=1;fontSize=16;align=center;fillColor=#f5f5f5;strokeColor=#666666;" vertex="1" parent="1">
          <mxGeometry x="130" y="595" width="125" height="80" as="geometry" />
        </mxCell>
        <mxCell id="FHTOoToXrkzVN3hK7Ukm-35" value="&lt;p class=&quot;MsoNormal&quot; style=&quot;margin: 0pt 0pt 0.0001pt ; text-align: justify ; font-family: &amp;#34;times new roman&amp;#34; ; font-size: 10.5pt&quot;&gt;&lt;span style=&quot;font-size: 10.5pt&quot;&gt;&lt;font face=&quot;宋体&quot;&gt;索引暂停&lt;/font&gt;&lt;/span&gt;&lt;/p&gt;" style="whiteSpace=wrap;html=1;rounded=1;shadow=1;strokeWidth=1;fontSize=16;align=center;fillColor=#f5f5f5;strokeColor=#666666;" vertex="1" parent="1">
          <mxGeometry x="280" y="595" width="125" height="80" as="geometry" />
        </mxCell>
        <mxCell id="FHTOoToXrkzVN3hK7Ukm-36" value="&lt;p class=&quot;MsoNormal&quot; style=&quot;margin: 0pt 0pt 0.0001pt ; text-align: justify ; font-family: &amp;#34;times new roman&amp;#34; ; font-size: 10.5pt&quot;&gt;&lt;span style=&quot;font-size: 10.5pt&quot;&gt;&lt;font face=&quot;宋体&quot;&gt;索引重启&lt;/font&gt;&lt;/span&gt;&lt;/p&gt;" style="whiteSpace=wrap;html=1;rounded=1;shadow=1;strokeWidth=1;fontSize=16;align=center;fillColor=#f5f5f5;strokeColor=#666666;" vertex="1" parent="1">
          <mxGeometry x="130" y="705" width="125" height="80" as="geometry" />
        </mxCell>
        <mxCell id="FHTOoToXrkzVN3hK7Ukm-37" value="&lt;p class=&quot;MsoNormal&quot; style=&quot;margin: 0pt 0pt 0.0001pt ; text-align: justify ; font-family: &amp;#34;times new roman&amp;#34; ; font-size: 10.5pt&quot;&gt;&lt;span style=&quot;font-size: 10.5pt&quot;&gt;&lt;font face=&quot;宋体&quot;&gt;日志追踪&lt;/font&gt;&lt;/span&gt;&lt;/p&gt;" style="whiteSpace=wrap;html=1;rounded=1;shadow=1;strokeWidth=1;fontSize=16;align=center;fillColor=#f5f5f5;strokeColor=#666666;" vertex="1" parent="1">
          <mxGeometry x="130" y="815" width="125" height="80" as="geometry" />
        </mxCell>
        <mxCell id="FHTOoToXrkzVN3hK7Ukm-38" value="&lt;p class=&quot;MsoNormal&quot; style=&quot;margin: 0pt 0pt 0.0001pt ; text-align: justify ; font-family: &amp;#34;times new roman&amp;#34; ; font-size: 10.5pt&quot;&gt;&lt;span style=&quot;font-size: 10.5pt&quot;&gt;&lt;font face=&quot;宋体&quot;&gt;回滚&lt;/font&gt;&lt;/span&gt;&lt;/p&gt;" style="whiteSpace=wrap;html=1;rounded=1;shadow=1;strokeWidth=1;fontSize=16;align=center;fillColor=#f5f5f5;strokeColor=#666666;" vertex="1" parent="1">
          <mxGeometry x="280" y="705" width="125" height="80" as="geometry" />
        </mxCell>
        <mxCell id="FHTOoToXrkzVN3hK7Ukm-39" style="edgeStyle=orthogonalEdgeStyle;html=1;startSize=6;endFill=0;endSize=6;strokeWidth=1;fontSize=16;rounded=0;entryX=1;entryY=0.5;endArrow=none;" edge="1" parent="1" source="FHTOoToXrkzVN3hK7Ukm-31" target="FHTOoToXrkzVN3hK7Ukm-32">
          <mxGeometry relative="1" as="geometry">
            <Array as="points">
              <mxPoint x="268" y="525" />
            </Array>
          </mxGeometry>
        </mxCell>
        <mxCell id="FHTOoToXrkzVN3hK7Ukm-40" style="edgeStyle=orthogonalEdgeStyle;html=1;startSize=6;endFill=0;endSize=6;strokeWidth=1;fontSize=16;rounded=0;entryX=1;entryY=0.5;endArrow=none;" edge="1" parent="1" source="FHTOoToXrkzVN3hK7Ukm-31" target="FHTOoToXrkzVN3hK7Ukm-34">
          <mxGeometry relative="1" as="geometry">
            <Array as="points">
              <mxPoint x="268" y="635" />
            </Array>
          </mxGeometry>
        </mxCell>
        <mxCell id="FHTOoToXrkzVN3hK7Ukm-41" style="edgeStyle=orthogonalEdgeStyle;html=1;startSize=6;endFill=0;endSize=6;strokeWidth=1;fontSize=16;rounded=0;entryX=1;entryY=0.5;endArrow=none;" edge="1" parent="1" source="FHTOoToXrkzVN3hK7Ukm-31" target="FHTOoToXrkzVN3hK7Ukm-36">
          <mxGeometry relative="1" as="geometry">
            <Array as="points">
              <mxPoint x="268" y="745" />
            </Array>
          </mxGeometry>
        </mxCell>
        <mxCell id="FHTOoToXrkzVN3hK7Ukm-42" style="edgeStyle=orthogonalEdgeStyle;html=1;startSize=6;endFill=0;endSize=6;strokeWidth=1;fontSize=16;rounded=0;endArrow=none;entryX=1;entryY=0.5;" edge="1" parent="1" source="FHTOoToXrkzVN3hK7Ukm-31" target="FHTOoToXrkzVN3hK7Ukm-37">
          <mxGeometry relative="1" as="geometry">
            <Array as="points">
              <mxPoint x="268" y="855" />
            </Array>
          </mxGeometry>
        </mxCell>
        <mxCell id="FHTOoToXrkzVN3hK7Ukm-43" style="edgeStyle=orthogonalEdgeStyle;html=1;startSize=6;endFill=0;endSize=6;strokeWidth=1;fontSize=16;rounded=0;entryX=0;entryY=0.5;endArrow=none;" edge="1" parent="1" source="FHTOoToXrkzVN3hK7Ukm-31" target="FHTOoToXrkzVN3hK7Ukm-33">
          <mxGeometry relative="1" as="geometry">
            <Array as="points">
              <mxPoint x="268" y="525" />
            </Array>
          </mxGeometry>
        </mxCell>
        <mxCell id="FHTOoToXrkzVN3hK7Ukm-44" style="edgeStyle=orthogonalEdgeStyle;html=1;startSize=6;endFill=0;endSize=6;strokeWidth=1;fontSize=16;rounded=0;entryX=0;entryY=0.5;endArrow=none;" edge="1" parent="1" source="FHTOoToXrkzVN3hK7Ukm-31" target="FHTOoToXrkzVN3hK7Ukm-35">
          <mxGeometry relative="1" as="geometry">
            <Array as="points">
              <mxPoint x="268" y="635" />
            </Array>
          </mxGeometry>
        </mxCell>
        <mxCell id="FHTOoToXrkzVN3hK7Ukm-45" style="edgeStyle=orthogonalEdgeStyle;html=1;startSize=6;endFill=0;endSize=6;strokeWidth=1;fontSize=16;rounded=0;entryX=0;entryY=0.5;endArrow=none;" edge="1" parent="1" source="FHTOoToXrkzVN3hK7Ukm-31" target="FHTOoToXrkzVN3hK7Ukm-38">
          <mxGeometry relative="1" as="geometry">
            <Array as="points">
              <mxPoint x="268" y="745" />
            </Array>
          </mxGeometry>
        </mxCell>
        <mxCell id="FHTOoToXrkzVN3hK7Ukm-46" value="搜索测试" style="whiteSpace=wrap;html=1;rounded=1;shadow=1;strokeWidth=1;fontSize=16;align=center;fillColor=#f5f5f5;strokeColor=#666666;" vertex="1" parent="1">
          <mxGeometry x="450" y="415" width="275" height="40" as="geometry" />
        </mxCell>
        <mxCell id="FHTOoToXrkzVN3hK7Ukm-47" value="搜索测试" style="whiteSpace=wrap;html=1;rounded=1;shadow=1;strokeWidth=1;fontSize=16;align=center;fillColor=#f5f5f5;strokeColor=#666666;" vertex="1" parent="1">
          <mxGeometry x="450" y="485" width="125" height="80" as="geometry" />
        </mxCell>
        <mxCell id="FHTOoToXrkzVN3hK7Ukm-48" style="edgeStyle=orthogonalEdgeStyle;html=1;startSize=6;endFill=0;endSize=6;strokeWidth=1;fontSize=16;rounded=0;endArrow=none;entryX=1;entryY=0.5;" edge="1" parent="1" source="FHTOoToXrkzVN3hK7Ukm-46" target="FHTOoToXrkzVN3hK7Ukm-47">
          <mxGeometry relative="1" as="geometry">
            <Array as="points">
              <mxPoint x="587" y="525" />
            </Array>
          </mxGeometry>
        </mxCell>
        <mxCell id="FHTOoToXrkzVN3hK7Ukm-49" style="edgeStyle=orthogonalEdgeStyle;html=1;startSize=6;endFill=0;endSize=6;strokeWidth=1;fontSize=16;rounded=0;endArrow=none;entryX=1;entryY=0.5;" edge="1" parent="1" source="FHTOoToXrkzVN3hK7Ukm-46">
          <mxGeometry relative="1" as="geometry">
            <Array as="points">
              <mxPoint x="588" y="635" />
            </Array>
            <mxPoint x="575" y="635" as="targetPoint" />
          </mxGeometry>
        </mxCell>
        <mxCell id="FHTOoToXrkzVN3hK7Ukm-50" style="edgeStyle=orthogonalEdgeStyle;html=1;startSize=6;endFill=0;endSize=6;strokeWidth=1;fontSize=16;rounded=0;endArrow=none;entryX=0;entryY=0.5;" edge="1" parent="1" source="FHTOoToXrkzVN3hK7Ukm-46">
          <mxGeometry relative="1" as="geometry">
            <Array as="points">
              <mxPoint x="587" y="525" />
            </Array>
            <mxPoint x="600" y="525" as="targetPoint" />
          </mxGeometry>
        </mxCell>
        <mxCell id="FHTOoToXrkzVN3hK7Ukm-51" style="edgeStyle=orthogonalEdgeStyle;html=1;startSize=6;endFill=0;endSize=6;strokeWidth=1;fontSize=16;rounded=0;endArrow=none;entryX=0;entryY=0.5;" edge="1" parent="1" source="FHTOoToXrkzVN3hK7Ukm-46">
          <mxGeometry relative="1" as="geometry">
            <Array as="points">
              <mxPoint x="587" y="635" />
            </Array>
            <mxPoint x="600" y="635" as="targetPoint" />
          </mxGeometry>
        </mxCell>
        <mxCell id="FHTOoToXrkzVN3hK7Ukm-52" value="集群监控" style="whiteSpace=wrap;html=1;rounded=1;shadow=1;strokeWidth=1;fontSize=16;align=center;fillColor=#f5f5f5;strokeColor=#666666;" vertex="1" parent="1">
          <mxGeometry x="747.5" y="415" width="275" height="40" as="geometry" />
        </mxCell>
        <mxCell id="FHTOoToXrkzVN3hK7Ukm-53" value="集群监控" style="whiteSpace=wrap;html=1;rounded=1;shadow=1;strokeWidth=1;fontSize=16;align=center;fillColor=#f5f5f5;strokeColor=#666666;" vertex="1" parent="1">
          <mxGeometry x="747.5" y="485" width="125" height="80" as="geometry" />
        </mxCell>
        <mxCell id="FHTOoToXrkzVN3hK7Ukm-54" style="edgeStyle=orthogonalEdgeStyle;html=1;startSize=6;endFill=0;endSize=6;strokeWidth=1;fontSize=16;rounded=0;endArrow=none;entryX=1;entryY=0.5;" edge="1" parent="1" source="FHTOoToXrkzVN3hK7Ukm-52" target="FHTOoToXrkzVN3hK7Ukm-53">
          <mxGeometry relative="1" as="geometry">
            <Array as="points">
              <mxPoint x="885.5" y="525" />
            </Array>
          </mxGeometry>
        </mxCell>
        <mxCell id="FHTOoToXrkzVN3hK7Ukm-55" style="edgeStyle=orthogonalEdgeStyle;html=1;startSize=6;endFill=0;endSize=6;strokeWidth=1;fontSize=16;rounded=0;endArrow=none;entryX=0;entryY=0.5;" edge="1" parent="1" source="FHTOoToXrkzVN3hK7Ukm-52">
          <mxGeometry relative="1" as="geometry">
            <Array as="points">
              <mxPoint x="885.5" y="525" />
            </Array>
            <mxPoint x="897.5" y="525" as="targetPoint" />
          </mxGeometry>
        </mxCell>
        <mxCell id="FHTOoToXrkzVN3hK7Ukm-56" style="edgeStyle=orthogonalEdgeStyle;html=1;startSize=6;endFill=0;endSize=6;strokeWidth=1;fontSize=16;rounded=0;endArrow=none;entryX=1;entryY=0.5;" edge="1" parent="1" source="FHTOoToXrkzVN3hK7Ukm-52">
          <mxGeometry relative="1" as="geometry">
            <Array as="points">
              <mxPoint x="885.5" y="635" />
            </Array>
            <mxPoint x="872.5" y="635" as="targetPoint" />
          </mxGeometry>
        </mxCell>
        <mxCell id="FHTOoToXrkzVN3hK7Ukm-57" value="辅助功能" style="whiteSpace=wrap;html=1;rounded=1;shadow=1;strokeWidth=1;fontSize=16;align=center;fillColor=#f5f5f5;strokeColor=#666666;" vertex="1" parent="1">
          <mxGeometry x="1060" y="415" width="275" height="40" as="geometry" />
        </mxCell>
        <mxCell id="FHTOoToXrkzVN3hK7Ukm-58" value="辅助功能" style="whiteSpace=wrap;html=1;rounded=1;shadow=1;strokeWidth=1;fontSize=16;align=center;fillColor=#f5f5f5;strokeColor=#666666;" vertex="1" parent="1">
          <mxGeometry x="1060" y="485" width="125" height="80" as="geometry" />
        </mxCell>
        <mxCell id="FHTOoToXrkzVN3hK7Ukm-68" style="edgeStyle=orthogonalEdgeStyle;html=1;startSize=6;endFill=0;endSize=6;strokeWidth=1;fontSize=16;rounded=0;endArrow=none;entryX=1;entryY=0.5;" edge="1" parent="1" source="FHTOoToXrkzVN3hK7Ukm-57" target="FHTOoToXrkzVN3hK7Ukm-58">
          <mxGeometry relative="1" as="geometry">
            <Array as="points">
              <mxPoint x="1198" y="525" />
            </Array>
          </mxGeometry>
        </mxCell>
        <mxCell id="FHTOoToXrkzVN3hK7Ukm-69" style="edgeStyle=orthogonalEdgeStyle;html=1;startSize=6;endFill=0;endSize=6;strokeWidth=1;fontSize=16;rounded=0;endArrow=none;entryX=1;entryY=0.5;" edge="1" parent="1" source="FHTOoToXrkzVN3hK7Ukm-57">
          <mxGeometry relative="1" as="geometry">
            <Array as="points">
              <mxPoint x="1198" y="635" />
            </Array>
            <mxPoint x="1185" y="635" as="targetPoint" />
          </mxGeometry>
        </mxCell>
        <mxCell id="FHTOoToXrkzVN3hK7Ukm-73" style="edgeStyle=orthogonalEdgeStyle;html=1;startSize=6;endFill=0;endSize=6;strokeWidth=1;fontSize=16;rounded=0;endArrow=none;entryX=0;entryY=0.5;" edge="1" parent="1" source="FHTOoToXrkzVN3hK7Ukm-57">
          <mxGeometry relative="1" as="geometry">
            <Array as="points">
              <mxPoint x="1198" y="525" />
            </Array>
            <mxPoint x="1210" y="525" as="targetPoint" />
          </mxGeometry>
        </mxCell>
        <mxCell id="FHTOoToXrkzVN3hK7Ukm-74" style="edgeStyle=orthogonalEdgeStyle;html=1;startSize=6;endFill=0;endSize=6;strokeWidth=1;fontSize=16;rounded=0;endArrow=none;entryX=0;entryY=0.5;" edge="1" parent="1" source="FHTOoToXrkzVN3hK7Ukm-57">
          <mxGeometry relative="1" as="geometry">
            <Array as="points">
              <mxPoint x="1198" y="635" />
            </Array>
            <mxPoint x="1210" y="635" as="targetPoint" />
          </mxGeometry>
        </mxCell>
      </root>
    </mxGraphModel>
  </diagram>
</mxfile>
